<svg xmlns="http://www.w3.org/2000/svg" viewBox="0 0 64 64" width="64" height="64">
  <!-- Background circle -->
  <circle cx="32" cy="32" r="30" fill="#6366f1" opacity="0.1"/>
  
  <!-- Main toolbox shape -->
  <g transform="translate(32, 32)">
    <!-- Wrench (left tool) -->
    <g transform="translate(-12, -8)">
      <rect x="2" y="2" width="8" height="3" rx="1.5" fill="#6366f1" transform="rotate(-30 6 3.5)"/>
      <circle cx="2" cy="12" r="3" fill="#6366f1"/>
      <rect x="2" y="5" width="2" height="8" fill="#6366f1"/>
    </g>
    
    <!-- Hammer (right tool) -->
    <g transform="translate(8, -8)">
      <rect x="1" y="0" width="6" height="6" rx="1" fill="#ec4899"/>
      <rect x="3" y="6" width="2" height="8" fill="#ec4899"/>
      <circle cx="4" cy="14" r="2" fill="#ec4899"/>
    </g>
    
    <!-- Screwdriver (center) -->
    <g transform="translate(-1, 4)">
      <rect x="0" y="0" width="4" height="2" rx="1" fill="#f97316"/>
      <rect x="1" y="2" width="2" height="12" fill="#f97316"/>
      <circle cx="2" cy="14" r="1.5" fill="#f97316"/>
    </g>
    
    <!-- Gear (accent) -->
    <g transform="translate(10, 6)">
      <circle cx="0" cy="0" r="3" fill="none" stroke="#06b6d4" stroke-width="1.5"/>
      <circle cx="0" cy="0" r="1" fill="#06b6d4"/>
      <circle cx="2.5" cy="1.5" r="0.8" fill="#06b6d4"/>
      <circle cx="2.5" cy="-1.5" r="0.8" fill="#06b6d4"/>
      <circle cx="-2.5" cy="1.5" r="0.8" fill="#06b6d4"/>
      <circle cx="-2.5" cy="-1.5" r="0.8" fill="#06b6d4"/>
    </g>
  </g>
  
  <!-- Highlight accent -->
  <circle cx="48" cy="18" r="3" fill="#06b6d4" opacity="0.6"/>
</svg>
