<svg xmlns="http://www.w3.org/2000/svg" xmlns:xlink="http://www.w3.org/1999/xlink" width="64" zoomAndPan="magnify" viewBox="0 0 48 48" height="64" preserveAspectRatio="xMidYMid meet" version="1.0"><defs><clipPath id="4c766ab178"><path d="M 1.25 1.535156 L 46.800781 1.535156 L 46.800781 45.617188 L 1.25 45.617188 Z M 1.25 1.535156 " clip-rule="nonzero"/></clipPath></defs><g clip-path="url(#4c766ab178)"><path fill="#0066cc" d="M 13.765625 23.695312 C 11.96875 23.695312 10.511719 22.238281 10.511719 20.441406 C 10.511719 18.644531 11.96875 17.1875 13.765625 17.1875 C 15.5625 17.1875 17.019531 18.644531 17.019531 20.441406 C 17.019531 22.238281 15.5625 23.695312 13.765625 23.695312 Z M 25.832031 18.765625 L 25.179688 18.667969 C 24.25 18.527344 23.472656 17.894531 23.152344 17.015625 C 23.054688 16.75 22.945312 16.492188 22.828125 16.238281 C 22.433594 15.382812 22.53125 14.382812 23.089844 13.625 L 23.484375 13.097656 C 23.640625 12.886719 23.617188 12.59375 23.433594 12.410156 L 21.796875 10.773438 C 21.613281 10.589844 21.320312 10.566406 21.109375 10.722656 L 20.582031 11.117188 C 19.824219 11.675781 18.824219 11.773438 17.96875 11.378906 C 17.714844 11.261719 17.457031 11.152344 17.195312 11.054688 C 16.3125 10.734375 15.679688 9.957031 15.539062 9.027344 L 15.445312 8.375 C 15.40625 8.117188 15.183594 7.925781 14.921875 7.925781 L 12.609375 7.925781 C 12.347656 7.925781 12.125 8.117188 12.085938 8.375 L 11.992188 9.027344 C 11.851562 9.957031 11.21875 10.734375 10.335938 11.054688 C 10.074219 11.152344 9.816406 11.261719 9.5625 11.378906 C 8.707031 11.773438 7.707031 11.675781 6.949219 11.117188 L 6.421875 10.722656 C 6.210938 10.566406 5.917969 10.589844 5.734375 10.773438 L 4.097656 12.410156 C 3.914062 12.59375 3.890625 12.886719 4.046875 13.097656 L 4.441406 13.625 C 5 14.382812 5.097656 15.382812 4.703125 16.238281 C 4.585938 16.492188 4.476562 16.75 4.378906 17.015625 C 4.058594 17.894531 3.28125 18.527344 2.351562 18.667969 L 1.699219 18.765625 C 1.441406 18.800781 1.25 19.023438 1.25 19.285156 L 1.25 21.597656 C 1.25 21.859375 1.441406 22.082031 1.699219 22.121094 L 2.351562 22.21875 C 3.28125 22.355469 4.058594 22.988281 4.378906 23.871094 C 4.476562 24.132812 4.585938 24.390625 4.703125 24.644531 C 5.097656 25.5 5 26.5 4.441406 27.257812 L 4.046875 27.789062 C 3.890625 27.996094 3.914062 28.289062 4.097656 28.472656 L 5.734375 30.109375 C 5.917969 30.292969 6.210938 30.316406 6.421875 30.160156 L 6.949219 29.765625 C 7.707031 29.207031 8.707031 29.109375 9.5625 29.507812 C 9.816406 29.625 10.074219 29.730469 10.335938 29.828125 C 11.21875 30.148438 11.851562 30.925781 11.992188 31.855469 L 12.085938 32.507812 C 12.125 32.765625 12.347656 32.957031 12.609375 32.957031 L 14.921875 32.957031 C 15.183594 32.957031 15.40625 32.765625 15.445312 32.507812 L 15.539062 31.855469 C 15.679688 30.925781 16.3125 30.148438 17.195312 29.828125 C 17.457031 29.730469 17.714844 29.625 17.96875 29.507812 C 18.824219 29.109375 19.824219 29.207031 20.582031 29.765625 L 21.109375 30.160156 C 21.320312 30.316406 21.613281 30.292969 21.796875 30.109375 L 23.433594 28.472656 C 23.617188 28.289062 23.640625 27.996094 23.484375 27.789062 L 23.089844 27.257812 C 22.53125 26.5 22.433594 25.5 22.828125 24.644531 C 22.945312 24.390625 23.054688 24.132812 23.152344 23.871094 C 23.472656 22.988281 24.25 22.355469 25.179688 22.21875 L 25.832031 22.121094 C 26.089844 22.082031 26.28125 21.859375 26.28125 21.597656 L 26.28125 19.285156 C 26.28125 19.023438 26.089844 18.800781 25.832031 18.765625 Z M 34.230469 36.210938 C 32.433594 36.210938 30.976562 34.753906 30.976562 32.957031 C 30.976562 31.160156 32.433594 29.703125 34.230469 29.703125 C 36.027344 29.703125 37.480469 31.160156 37.480469 32.957031 C 37.480469 34.753906 36.027344 36.210938 34.230469 36.210938 Z M 46.296875 31.277344 L 45.644531 31.183594 C 44.714844 31.042969 43.9375 30.410156 43.613281 29.53125 C 43.519531 29.265625 43.410156 29.007812 43.292969 28.753906 C 42.898438 27.898438 42.996094 26.898438 43.554688 26.140625 L 43.949219 25.613281 C 44.101562 25.402344 44.082031 25.109375 43.898438 24.925781 L 42.261719 23.289062 C 42.074219 23.105469 41.785156 23.082031 41.574219 23.238281 L 41.042969 23.632812 C 40.289062 24.191406 39.285156 24.289062 38.433594 23.894531 C 38.179688 23.777344 37.921875 23.667969 37.65625 23.570312 C 36.777344 23.25 36.140625 22.472656 36.003906 21.542969 L 35.90625 20.890625 C 35.871094 20.632812 35.648438 20.441406 35.386719 20.441406 L 33.070312 20.441406 C 32.8125 20.441406 32.589844 20.632812 32.550781 20.890625 L 32.453125 21.542969 C 32.316406 22.472656 31.683594 23.25 30.800781 23.570312 C 30.539062 23.667969 30.277344 23.777344 30.027344 23.894531 C 29.171875 24.289062 28.171875 24.191406 27.414062 23.632812 L 26.882812 23.238281 C 26.675781 23.082031 26.382812 23.105469 26.199219 23.289062 L 24.5625 24.925781 C 24.375 25.109375 24.355469 25.402344 24.511719 25.613281 L 24.902344 26.140625 C 25.464844 26.898438 25.5625 27.898438 25.164062 28.753906 C 25.046875 29.007812 24.941406 29.265625 24.84375 29.53125 C 24.523438 30.410156 23.742188 31.042969 22.816406 31.183594 L 22.164062 31.277344 C 21.90625 31.316406 21.714844 31.539062 21.714844 31.800781 L 21.714844 34.113281 C 21.714844 34.375 21.90625 34.597656 22.164062 34.636719 L 22.816406 34.730469 C 23.742188 34.871094 24.523438 35.503906 24.84375 36.382812 C 24.941406 36.648438 25.046875 36.90625 25.164062 37.160156 C 25.5625 38.015625 25.464844 39.015625 24.902344 39.773438 L 24.511719 40.304688 C 24.355469 40.511719 24.375 40.804688 24.5625 40.988281 L 26.199219 42.625 C 26.382812 42.808594 26.675781 42.832031 26.882812 42.675781 L 27.414062 42.28125 C 28.171875 41.722656 29.171875 41.625 30.027344 42.019531 C 30.277344 42.136719 30.539062 42.246094 30.800781 42.34375 C 31.683594 42.664062 32.316406 43.441406 32.453125 44.371094 L 32.550781 45.023438 C 32.589844 45.28125 32.8125 45.472656 33.070312 45.472656 L 35.386719 45.472656 C 35.648438 45.472656 35.871094 45.28125 35.90625 45.023438 L 36.003906 44.371094 C 36.140625 43.441406 36.777344 42.664062 37.65625 42.34375 C 37.921875 42.246094 38.179688 42.136719 38.433594 42.019531 C 39.285156 41.625 40.289062 41.722656 41.042969 42.28125 L 41.574219 42.675781 C 41.785156 42.832031 42.074219 42.808594 42.261719 42.625 L 43.898438 40.988281 C 44.082031 40.804688 44.101562 40.511719 43.949219 40.304688 L 43.554688 39.773438 C 42.996094 39.015625 42.898438 38.015625 43.292969 37.160156 C 43.410156 36.90625 43.519531 36.648438 43.613281 36.382812 C 43.9375 35.503906 44.714844 34.871094 45.644531 34.730469 L 46.296875 34.636719 C 46.554688 34.597656 46.746094 34.375 46.746094 34.113281 L 46.746094 31.800781 C 46.746094 31.539062 46.554688 31.316406 46.296875 31.277344 Z M 32.40625 13.046875 C 31.050781 13.046875 29.953125 11.945312 29.953125 10.59375 C 29.953125 9.238281 31.050781 8.136719 32.40625 8.136719 C 33.761719 8.136719 34.859375 9.238281 34.859375 10.59375 C 34.859375 11.945312 33.761719 13.046875 32.40625 13.046875 Z M 41.125 9.378906 L 40.652344 9.308594 C 39.984375 9.210938 39.421875 8.75 39.1875 8.117188 C 39.117188 7.925781 39.039062 7.738281 38.957031 7.554688 C 38.667969 6.9375 38.738281 6.214844 39.144531 5.667969 L 39.429688 5.285156 C 39.539062 5.132812 39.523438 4.921875 39.390625 4.789062 L 38.210938 3.605469 C 38.074219 3.472656 37.863281 3.457031 37.714844 3.570312 L 37.332031 3.855469 C 36.785156 4.257812 36.058594 4.328125 35.441406 4.042969 C 35.261719 3.957031 35.074219 3.878906 34.882812 3.8125 C 34.246094 3.578125 33.789062 3.015625 33.6875 2.34375 L 33.617188 1.875 C 33.589844 1.6875 33.429688 1.546875 33.242188 1.546875 L 31.570312 1.546875 C 31.382812 1.546875 31.222656 1.6875 31.191406 1.875 L 31.125 2.34375 C 31.023438 3.015625 30.566406 3.578125 29.929688 3.8125 C 29.738281 3.878906 29.550781 3.957031 29.367188 4.042969 C 28.75 4.328125 28.027344 4.257812 27.480469 3.855469 L 27.097656 3.570312 C 26.945312 3.457031 26.734375 3.472656 26.601562 3.605469 L 25.421875 4.789062 C 25.285156 4.921875 25.269531 5.132812 25.382812 5.285156 L 25.667969 5.667969 C 26.074219 6.214844 26.144531 6.9375 25.855469 7.554688 C 25.769531 7.738281 25.695312 7.925781 25.625 8.117188 C 25.390625 8.75 24.828125 9.210938 24.160156 9.308594 L 23.6875 9.378906 C 23.5 9.40625 23.363281 9.566406 23.363281 9.757812 L 23.363281 11.429688 C 23.363281 11.617188 23.5 11.777344 23.6875 11.804688 L 24.160156 11.875 C 24.828125 11.972656 25.390625 12.433594 25.625 13.070312 C 25.695312 13.257812 25.769531 13.445312 25.855469 13.628906 C 26.144531 14.246094 26.074219 14.96875 25.667969 15.515625 L 25.382812 15.898438 C 25.269531 16.050781 25.285156 16.261719 25.421875 16.394531 L 26.601562 17.578125 C 26.734375 17.710938 26.945312 17.726562 27.097656 17.613281 L 27.480469 17.332031 C 28.027344 16.925781 28.75 16.855469 29.367188 17.140625 C 29.550781 17.226562 29.738281 17.304688 29.929688 17.375 C 30.566406 17.605469 31.023438 18.167969 31.125 18.839844 L 31.191406 19.3125 C 31.222656 19.496094 31.382812 19.636719 31.570312 19.636719 L 33.242188 19.636719 C 33.429688 19.636719 33.589844 19.496094 33.617188 19.3125 L 33.6875 18.839844 C 33.789062 18.167969 34.246094 17.605469 34.882812 17.375 C 35.074219 17.304688 35.261719 17.226562 35.441406 17.140625 C 36.058594 16.855469 36.785156 16.925781 37.332031 17.332031 L 37.714844 17.613281 C 37.863281 17.726562 38.074219 17.710938 38.210938 17.578125 L 39.390625 16.394531 C 39.523438 16.261719 39.539062 16.050781 39.429688 15.898438 L 39.144531 15.515625 C 38.738281 14.96875 38.667969 14.246094 38.957031 13.628906 C 39.039062 13.445312 39.117188 13.257812 39.1875 13.070312 C 39.421875 12.433594 39.984375 11.972656 40.652344 11.875 L 41.125 11.804688 C 41.3125 11.777344 41.449219 11.617188 41.449219 11.429688 L 41.449219 9.757812 C 41.449219 9.566406 41.3125 9.40625 41.125 9.378906 " fill-opacity="1" fill-rule="nonzero"/></g></svg>